<svg width="278" height="122" viewBox="0 0 278 122" fill="none" xmlns="http://www.w3.org/2000/svg">
<path d="M4.864 121.088C4.352 121.088 3.79733 121.045 3.2 120.96C2.688 120.96 2.13333 120.875 1.536 120.704L0 104.96C3.92533 104.96 6.69867 104.32 8.32 103.04C10.0267 101.76 10.88 99.2 10.88 95.36V28.032H29.312V95.872C29.312 100.309 28.7573 104.107 27.648 107.264C26.624 110.507 25.088 113.109 23.04 115.072C20.992 117.12 18.432 118.613 15.36 119.552C12.3733 120.576 8.87467 121.088 4.864 121.088ZM20.096 17.92C16.512 17.92 13.7387 17.1947 11.776 15.744C9.89867 14.208 8.96 11.9893 8.96 9.088C8.96 6.10133 9.89867 3.84 11.776 2.304C13.7387 0.768 16.512 0 20.096 0C23.7653 0 26.5387 0.768 28.416 2.304C30.3787 3.84 31.36 6.10133 31.36 9.088C31.36 11.904 30.3787 14.08 28.416 15.616C26.5387 17.152 23.7653 17.92 20.096 17.92Z" fill="#E1765A"/>
<path d="M69.152 97.024C61.3013 97.024 55.3707 94.3787 51.36 89.088C47.4347 83.712 45.472 75.5627 45.472 64.64V28.032H63.904V62.336C63.904 68.9067 64.8853 73.8133 66.848 77.056C68.8107 80.2133 71.7973 81.792 75.808 81.792C78.1973 81.792 80.288 81.1947 82.08 80C83.872 78.8053 85.408 77.1413 86.688 75.008C87.968 72.8747 88.9067 70.3573 89.504 67.456C90.1867 64.5547 90.5707 61.44 90.656 58.112V28.032H109.088V95.232H94.24L94.112 74.24H91.808C90.528 79.5307 88.9067 83.8827 86.944 87.296C85.0667 90.624 82.6347 93.0987 79.648 94.72C76.7467 96.256 73.248 97.024 69.152 97.024Z" fill="#E1765A"/>
<path d="M125.993 95.232V3.712H144.169V54.528C146.814 52.736 149.332 50.816 151.721 48.768C154.196 46.6347 156.414 44.416 158.377 42.112C160.425 39.808 162.217 37.4613 163.753 35.072C165.374 32.6827 166.74 30.336 167.849 28.032H188.969C187.689 31.2747 185.982 34.56 183.849 37.888C181.801 41.1307 179.326 44.16 176.425 46.976C173.609 49.7067 170.324 52.0533 166.569 54.016C162.814 55.9787 158.676 57.3013 154.153 57.984V60.16C159.87 59.136 164.606 59.2213 168.361 60.416C172.116 61.6107 175.188 63.5307 177.577 66.176C180.052 68.736 182.014 71.7227 183.465 75.136C184.916 78.464 186.238 81.8347 187.433 85.248L190.377 95.232H170.281L168.617 88.96C167.422 84.7787 166.1 81.1093 164.649 77.952C163.198 74.7947 161.278 72.3627 158.889 70.656C156.585 68.864 153.385 67.968 149.289 67.968H144.169V95.232H125.993Z" fill="#E1765A"/>
<path d="M231.35 97.024C225.803 97.024 220.854 96.256 216.502 94.72C212.235 93.184 208.609 90.9653 205.622 88.064C202.635 85.1627 200.331 81.5787 198.71 77.312C197.174 73.0453 196.406 68.224 196.406 62.848C196.406 57.5573 197.131 52.6933 198.582 48.256C200.118 43.7333 202.337 39.8507 205.238 36.608C208.139 33.28 211.681 30.72 215.862 28.928C220.043 27.136 224.779 26.24 230.07 26.24C235.19 26.24 239.755 27.0933 243.766 28.8C247.777 30.4213 251.105 32.896 253.75 36.224C256.481 39.552 258.443 43.648 259.638 48.512C260.918 53.2907 261.387 58.7947 261.046 65.024L208.31 65.536V55.424L250.422 55.04L243.894 60.16C244.491 55.6373 244.193 51.9253 242.998 49.024C241.803 46.1227 240.054 43.9893 237.75 42.624C235.531 41.2587 233.057 40.576 230.326 40.576C227.083 40.576 224.225 41.4293 221.75 43.136C219.275 44.8427 217.355 47.36 215.99 50.688C214.625 53.9307 213.942 57.856 213.942 62.464C213.942 69.7173 215.521 75.0507 218.678 78.464C221.921 81.8773 226.145 83.584 231.35 83.584C233.739 83.584 235.745 83.2853 237.366 82.688C239.073 82.0053 240.438 81.152 241.462 80.128C242.571 79.104 243.425 77.952 244.022 76.672C244.705 75.392 245.259 74.112 245.686 72.832L261.686 76.288C260.918 79.4453 259.766 82.304 258.23 84.864C256.779 87.3387 254.817 89.5147 252.342 91.392C249.867 93.184 246.881 94.5493 243.382 95.488C239.969 96.512 235.958 97.024 231.35 97.024Z" fill="#E1765A"/>
<path d="M277.92 89.232C277.92 92.5457 275.234 95.232 271.92 95.232C268.606 95.232 265.92 92.5457 265.92 89.232C265.92 85.9183 268.606 83.232 271.92 83.232C275.234 83.232 277.92 85.9183 277.92 89.232Z" fill="#E1765A"/>
</svg>
